<svg xmlns="http://www.w3.org/2000/svg" xmlns:xlink="http://www.w3.org/1999/xlink" width="500" zoomAndPan="magnify" viewBox="0 0 375 374.999991" height="500" preserveAspectRatio="xMidYMid meet" version="1.2"><defs><clipPath id="d76c3b9888"><path d="M 0.15625 0 L 375 0 L 375 375 L 0.15625 375 Z M 0.15625 0 "/></clipPath><clipPath id="a297528c4d"><path d="M 187.65625 0 C 84.101562 0 0.15625 83.945312 0.15625 187.5 C 0.15625 291.054688 84.101562 375 187.65625 375 C 291.207031 375 375.15625 291.054688 375.15625 187.5 C 375.15625 83.945312 291.207031 0 187.65625 0 Z M 187.65625 0 "/></clipPath></defs><g id="8fbfb27b24"><g clip-rule="nonzero" clip-path="url(#d76c3b9888)"><g clip-rule="nonzero" clip-path="url(#a297528c4d)"><path style=" stroke:none;fill-rule:nonzero;fill:#000000;fill-opacity:1;" d="M 0.15625 0 L 375.15625 0 L 375.15625 375 L 0.15625 375 Z M 0.15625 0 "/></g></g><g style="fill:#ffffff;fill-opacity:1;"><g transform="translate(87.278084, 247.072908)"><path style="stroke:none" d="M 36.421875 -27.421875 L 97.71875 -27.421875 L 97.71875 0 L 5.875 0 L 5.875 -127.296875 L 36.421875 -127.296875 Z M 36.421875 -27.421875 "/></g></g><g style="fill:#ffffff;fill-opacity:1;"><g transform="translate(187.354837, 247.072908)"><path style="stroke:none" d="M 36.421875 -49.9375 L 36.421875 -27.421875 L 94.78125 -27.421875 L 94.78125 0 L 5.875 0 L 5.875 -127.296875 L 94.78125 -127.296875 L 94.78125 -99.875 L 36.421875 -99.875 L 36.421875 -77.359375 L 85.96875 -77.359375 L 85.96875 -49.9375 Z M 36.421875 -49.9375 "/></g></g></g></svg>